# xmcd
#
# Track frame offsets:
#	150
#	19325
#	34950
#	60662
#	97200
#	114405
#	135500
#	160075
#	185040
#
# Disc length: 2603 seconds
#
# Revision: 0
# Processed by: cddbd v1.4PL0 Copyright (c) Steve Scherf et al.
# Submitted via: dBpowerAMP V4.0
#
DISCID=7b0a2909
DTITLE=Life is not a Picninc - A part ça, ça va...
DYEAR=1900
DGENRE=
TTITLE0=The man in the desert
TTITLE1=Oh cumba'
TTITLE2=Des tics et tacs et lucia
TTITLE3=Le tueur de temps
TTITLE4=Tu eres tout
TTITLE5=Tu l'verras plus (taxi)
TTITLE6=A part ça, ça va...
TTITLE7=Oyvavoy
TTITLE8=Oh cumba' (fin)
EXTD=
EXTT0=
EXTT1=
EXTT2=
EXTT3=
EXTT4=
EXTT5=
EXTT6=
EXTT7=
EXTT8=
PLAYORDER=
